# xmcd CD database file
#
# Track frame offsets:
#	150
#	15350
#	30520
#	43897
#	58962
#	72600
#	87111
#	110708
#	120618
#	142288
#	161100
#	183226
#	196686
#	207945
#	222260
#	234610
#	249008
#	263113
#	275866
#	289717
#	302318
#
# Disc length: 4205 seconds
#
# Revision: 0
# Processed by: cddbd v1.5.2PL0 Copyright (c) Steve Scherf et al.
# Submitted via: CDex 1.70beta2
#
DISCID=3a106b15
DTITLE=Various Artist - Jazz Roads CD177 - Swing - Lester Young Vol.5 (1944-46)
DYEAR=2006
DGENRE=Jazz
TTITLE0=Lester Young Quintet - Blue Lester
TTITLE1=Lester Young Quintet - Ghost Of A Chance
TTITLE2=Lester Young Quintet - Indiana
TTITLE3=Lester Young Quintet - Jump Lester, Jump
TTITLE4=Jammin' The Blues - Midnight Symphony
TTITLE5=Jammin' The Blues - On The Sunny Side Of The Street
TTITLE6=Jammin' The Blues - Sweet Georgia Brown
TTITLE7=Jammin' The Blues - If I Could Be With You
TTITLE8=Jammin' The Blues - Blues For Marvin
TTITLE9=Jammin' The Blues - Jammin' The Blues
TTITLE10=Jammin' The Blues - Jammin' The Blues
TTITLE11=Lester Young And His Band - D.B. Blues
TTITLE12=Lester Young And His Band - Lester Blows Again
TTITLE13=Lester Young And His Band - These Foolish Things
TTITLE14=Lester Young And His Band - Jumpin' At Mesners
TTITLE15=Helen Humes And Her All Stars - Riffin' Without Helen
TTITLE16=Helen Humes And Her All Stars - Please Let Me Forget
TTITLE17=Helen Humes And Her All Stars - He Don't Love Me Anymore
TTITLE18=Helen Humes And Her All Stars - Pleasing Man Blues
TTITLE19=Helen Humes And Her All Stars - See See Rider
TTITLE20=Helen Humes And Her All Stars - It's Better To Give Than To Receive
EXTD=YEAR: 2006
EXTT0=
EXTT1=
EXTT2=
EXTT3=
EXTT4=
EXTT5=
EXTT6=
EXTT7=
EXTT8=
EXTT9=
EXTT10=
EXTT11=
EXTT12=
EXTT13=
EXTT14=
EXTT15=
EXTT16=
EXTT17=
EXTT18=
EXTT19=
EXTT20=
PLAYORDER=
